<svg width="115" height="115" viewBox="0 0 115 115" fill="none" xmlns="http://www.w3.org/2000/svg">
<path d="M110.881 44.2301H103.639V35.3845L99.6598 22.1155H92.5818V13.2689L88.4397 0H26.5324L22.3863 13.2689V22.1145H15.3083L11.3317 35.3845V44.2301H4.08727L0 57.5V103.196C0 109.692 9.72872 115 16.2235 115H103.199C109.224 115 115 109.554 115 103.666V57.498L110.881 44.2301ZM35.3759 13.2689H79.5952V22.1145H35.3759V13.2689ZM24.0442 35.3845H90.9269V44.2301H24.0442V35.3845ZM101.982 66.3456H79.1536C78.1333 71.3404 75.4196 75.8295 71.4714 79.0534C67.5231 82.2773 62.5828 84.0382 57.486 84.0382C52.3893 84.0382 47.4489 82.2773 43.5007 79.0534C39.5525 75.8295 36.8387 71.3404 35.8185 66.3456H12.9896V57.499H101.983L101.982 66.3456Z" fill="#EF9C4B"/>
</svg>
