<svg width="225" height="115" viewBox="0 0 225 115" fill="none" xmlns="http://www.w3.org/2000/svg">
<rect y="23" width="70" height="70" rx="35" fill="#228A95"/>
<path d="M39.0107 62.0107V73.4849H31.3818V62.0107H20V54.4126H31.3818V43H39.0107V54.4126H50.4849V62.0107H39.0107Z" fill="white"/>
<path d="M220.881 44.2301H213.639V35.3845L209.66 22.1155H202.582V13.2689L198.44 0H136.532L132.386 13.2689V22.1145H125.308L121.332 35.3845V44.2301H114.087L110 57.5V103.196C110 109.692 119.729 115 126.223 115H213.199C219.224 115 225 109.554 225 103.666V57.498L220.881 44.2301ZM145.376 13.2689H189.595V22.1145H145.376V13.2689ZM134.044 35.3845H200.927V44.2301H134.044V35.3845ZM211.982 66.3456H189.154C188.133 71.3404 185.42 75.8295 181.471 79.0534C177.523 82.2773 172.583 84.0382 167.486 84.0382C162.389 84.0382 157.449 82.2773 153.501 79.0534C149.552 75.8295 146.839 71.3404 145.818 66.3456H122.99V57.499H211.983L211.982 66.3456Z" fill="#EF9C4B"/>
</svg>
