<svg width="211" height="55" viewBox="0 0 211 55" fill="none" xmlns="http://www.w3.org/2000/svg">
<g clip-path="url(#clip0_3:18)">
<path d="M104.585 30.0111L106.931 25.7142C107.1 25.6839 107.271 25.6639 107.443 25.6541C107.599 25.6461 107.742 25.642 107.872 25.642C108.002 25.642 108.155 25.6501 108.329 25.6661L108.859 25.7142L106.486 29.8908L109.061 34.3664L108.523 34.4145C108.351 34.4306 108.196 34.4386 108.06 34.4386C107.923 34.4386 107.781 34.4346 107.635 34.4266C107.46 34.4164 107.285 34.3963 107.112 34.3664L104.585 30.0111ZM102.576 25.7039C102.723 25.6804 102.872 25.6643 103.021 25.6558C103.165 25.6478 103.314 25.6438 103.466 25.6438C103.603 25.6438 103.743 25.6478 103.887 25.6558C104.036 25.6643 104.185 25.6804 104.332 25.7039V34.3785C104.185 34.402 104.036 34.418 103.887 34.4266C103.743 34.4346 103.598 34.4386 103.452 34.4386C103.307 34.4386 103.164 34.4346 103.023 34.4266C102.873 34.4181 102.724 34.402 102.576 34.3785V25.7039ZM110.553 25.5716C110.835 25.524 111.121 25.4999 111.407 25.4994C111.689 25.5002 111.971 25.5243 112.249 25.5716V31.888C112.245 32.0893 112.26 32.2906 112.291 32.4895C112.309 32.616 112.354 32.737 112.423 32.8445C112.481 32.9255 112.563 32.9858 112.658 33.0163C112.775 33.0514 112.897 33.0676 113.019 33.0645C113.089 33.0641 113.16 33.0601 113.23 33.0524C113.304 33.0446 113.379 33.0326 113.452 33.0163C113.538 33.33 113.583 33.6536 113.584 33.9788V34.1507C113.583 34.2088 113.575 34.2665 113.56 34.3226C113.409 34.3675 113.254 34.3963 113.097 34.4085C112.917 34.4246 112.75 34.4326 112.598 34.4326C112.055 34.4591 111.523 34.2761 111.112 33.9213C110.907 33.6981 110.752 33.4345 110.655 33.1475C110.559 32.8604 110.524 32.5564 110.553 32.2549V25.5716ZM114.968 28.1497C115.25 28.1021 115.536 28.078 115.822 28.0775C116.109 28.078 116.394 28.1021 116.676 28.1497V31.4445C116.671 31.7174 116.697 31.9899 116.755 32.2567C116.794 32.4418 116.876 32.6151 116.995 32.762C117.103 32.8857 117.242 32.9773 117.398 33.0267C117.582 33.0821 117.772 33.1085 117.964 33.1049C118.215 33.1097 118.466 33.0808 118.71 33.0189V28.1463C118.988 28.099 119.27 28.0749 119.552 28.0741C119.838 28.0745 120.124 28.0987 120.406 28.1463V34.1258C120.073 34.2334 119.734 34.3196 119.39 34.3836C118.956 34.4691 118.514 34.5114 118.072 34.5099C117.677 34.5114 117.283 34.4795 116.893 34.4145C116.535 34.3581 116.195 34.2179 115.9 34.0055C115.594 33.7687 115.359 33.4524 115.221 33.0911C115.034 32.5792 114.948 32.0357 114.968 31.491V28.1497ZM122.702 29.4491H121.92L121.86 29.2085L124.112 26.3295H124.389V28.1463H125.844C125.866 28.2536 125.883 28.362 125.892 28.4711C125.9 28.5674 125.904 28.6676 125.904 28.7719C125.904 28.8762 125.9 28.9844 125.892 29.0967C125.883 29.2138 125.867 29.3303 125.844 29.4456H124.389V31.888C124.384 32.0902 124.404 32.2923 124.449 32.4895C124.478 32.6213 124.537 32.7447 124.621 32.8505C124.695 32.9374 124.793 33.0003 124.903 33.031C125.033 33.0652 125.166 33.0814 125.3 33.0791C125.419 33.0792 125.538 33.0691 125.655 33.049L125.968 32.9914C126.025 33.1452 126.065 33.3045 126.088 33.4667C126.111 33.612 126.123 33.7587 126.124 33.9058C126.124 33.994 126.122 34.0682 126.118 34.1284C126.114 34.1885 126.108 34.2458 126.1 34.3002C125.726 34.3891 125.342 34.4335 124.957 34.4326C124.356 34.474 123.761 34.2919 123.285 33.9213C123.075 33.7022 122.914 33.4407 122.814 33.1543C122.713 32.8679 122.675 32.5633 122.702 32.261V29.4491ZM131.898 32.8986C132.001 33.0745 132.082 33.2624 132.138 33.4581C132.207 33.7027 132.239 33.956 132.235 34.21C131.945 34.3285 131.641 34.4099 131.331 34.4524C131.039 34.4891 130.746 34.5072 130.452 34.5065C129.987 34.517 129.525 34.4331 129.093 34.2599C128.727 34.11 128.4 33.8791 128.136 33.5844C127.877 33.2835 127.682 32.9325 127.565 32.5531C127.434 32.1361 127.369 31.7012 127.372 31.2641C127.368 30.8302 127.431 30.3983 127.559 29.9836C127.676 29.6054 127.868 29.2546 128.124 28.9524C128.383 28.6514 128.706 28.4128 129.07 28.2545C129.484 28.0787 129.931 27.9926 130.381 28.0019C130.557 28.0019 130.72 28.0059 130.868 28.0139C131.012 28.0213 131.156 28.0373 131.298 28.062C131.436 28.0865 131.573 28.1186 131.707 28.1583C131.843 28.1984 131.996 28.2505 132.164 28.3147C132.161 28.5232 132.137 28.7308 132.092 28.9343C132.044 29.1618 131.967 29.3822 131.863 29.59C131.658 29.5187 131.446 29.4643 131.232 29.4276C131.026 29.3965 130.817 29.3812 130.609 29.382C130.396 29.3677 130.183 29.4044 129.987 29.4892C129.791 29.5739 129.619 29.7043 129.484 29.8693C129.207 30.2776 129.073 30.7665 129.105 31.2589C129.061 31.7665 129.206 32.2724 129.514 32.6786C129.655 32.8282 129.828 32.9454 130.019 33.0222C130.21 33.099 130.415 33.1337 130.621 33.1238C130.741 33.1238 130.851 33.1218 130.952 33.1177C131.05 33.1139 131.149 33.1038 131.246 33.0877C131.346 33.0707 131.445 33.0466 131.541 33.0155C131.641 32.9857 131.76 32.9467 131.898 32.8986ZM133.991 25.5716C134.13 25.5472 134.271 25.5311 134.412 25.5235C134.557 25.5154 134.697 25.5114 134.833 25.5114C134.97 25.5114 135.11 25.5154 135.254 25.5235C135.398 25.5317 135.542 25.5477 135.684 25.5716V28.8802C135.741 28.808 135.816 28.722 135.907 28.6224C136.01 28.5131 136.125 28.4162 136.25 28.3336C136.403 28.2334 136.569 28.1544 136.744 28.099C136.958 28.0316 137.181 27.9991 137.405 28.0027C137.693 27.9824 137.982 28.0233 138.253 28.1229C138.523 28.2224 138.77 28.3783 138.976 28.5802C139.375 29.097 139.567 29.745 139.512 30.3961V34.3785C139.37 34.4023 139.226 34.4183 139.082 34.4266C138.938 34.4346 138.797 34.4386 138.661 34.4386C138.525 34.4386 138.383 34.4346 138.236 34.4266C138.093 34.4183 137.949 34.4023 137.807 34.3785V30.855C137.826 30.5101 137.756 30.166 137.602 29.8564C137.53 29.7392 137.426 29.6445 137.303 29.5829C137.18 29.5213 137.042 29.4952 136.904 29.5075C136.762 29.5084 136.62 29.5286 136.483 29.5677C136.335 29.6103 136.2 29.6912 136.092 29.8023C135.962 29.9419 135.863 30.1081 135.804 30.2895C135.719 30.5537 135.68 30.8304 135.689 31.1077V34.3785C135.544 34.4027 135.397 34.4187 135.249 34.4266C135.105 34.4346 134.965 34.4386 134.828 34.4386C134.692 34.4386 134.555 34.4346 134.417 34.4266C134.273 34.4183 134.129 34.4023 133.987 34.3785L133.991 25.5716Z" fill="white"/>
<path d="M148.124 26.4602H145.802C145.793 26.4032 145.787 26.3459 145.784 26.2883C145.78 26.2195 145.778 26.1531 145.778 26.0889C145.778 26.0248 145.78 25.9606 145.784 25.8964C145.787 25.836 145.793 25.7757 145.802 25.716H151.277C151.286 25.7729 151.292 25.8303 151.295 25.8878C151.299 25.952 151.301 26.0162 151.301 26.0803C151.301 26.1445 151.299 26.2107 151.295 26.2788C151.292 26.3396 151.286 26.4001 151.277 26.4602H148.956V34.3664C148.899 34.3744 148.835 34.3805 148.764 34.3845C148.693 34.3885 148.62 34.3905 148.546 34.3905C148.465 34.3905 148.387 34.3885 148.311 34.3845C148.249 34.3818 148.186 34.3758 148.124 34.3664V26.4602ZM152.817 31.4188C152.761 32.0712 152.964 32.7193 153.382 33.2235C153.611 33.4296 153.879 33.587 154.171 33.6863C154.463 33.7856 154.771 33.8246 155.079 33.801C155.363 33.8028 155.647 33.7767 155.927 33.7227C156.186 33.671 156.441 33.6006 156.691 33.5122C156.736 33.6163 156.768 33.7253 156.787 33.837C156.809 33.9524 156.825 34.0689 156.835 34.186C156.573 34.299 156.298 34.3798 156.017 34.4266C155.679 34.4854 155.337 34.5142 154.994 34.5125C154.528 34.5246 154.065 34.4458 153.629 34.2805C153.27 34.137 152.95 33.9109 152.695 33.6205C152.444 33.3285 152.259 32.9858 152.153 32.6159C152.034 32.1994 151.976 31.7677 151.981 31.3345C151.976 30.9078 152.028 30.4823 152.137 30.0695C152.236 29.6981 152.403 29.3484 152.63 29.0383C152.852 28.7404 153.143 28.5009 153.478 28.3405C153.867 28.1628 154.291 28.0764 154.718 28.0878C155.085 28.0807 155.449 28.1498 155.788 28.2906C156.091 28.4194 156.36 28.6147 156.576 28.8621C156.796 29.1187 156.959 29.4177 157.058 29.7404C157.169 30.1022 157.224 30.479 157.22 30.8576C157.22 30.9298 157.218 31.022 157.214 31.1343C157.21 31.2466 157.204 31.3429 157.196 31.4231L152.817 31.4188ZM156.426 30.757C156.426 30.5093 156.394 30.2625 156.33 30.0231C156.272 29.795 156.17 29.5804 156.029 29.3915C155.888 29.2071 155.707 29.057 155.5 28.9524C155.257 28.8329 154.988 28.7739 154.718 28.7805C154.475 28.7663 154.232 28.8051 154.005 28.8942C153.779 28.9832 153.574 29.1203 153.406 29.2961C153.065 29.7094 152.867 30.2218 152.841 30.757H156.426ZM163.609 33.593C163.657 33.6972 163.696 33.806 163.723 33.9178C163.759 34.0542 163.785 34.1665 163.801 34.2547C163.577 34.3331 163.347 34.3934 163.114 34.4352C162.832 34.4855 162.546 34.5096 162.259 34.5074C161.842 34.5365 161.423 34.4783 161.03 34.3364C160.636 34.1945 160.276 33.972 159.974 33.6832C159.412 33.0193 159.131 32.1625 159.192 31.295C159.187 30.8643 159.252 30.4358 159.384 30.0257C159.503 29.6528 159.696 29.3072 159.949 29.0091C160.205 28.7152 160.524 28.4828 160.882 28.3293C161.29 28.1583 161.729 28.0743 162.171 28.0827C162.463 28.0817 162.755 28.1038 163.043 28.1488C163.266 28.1802 163.485 28.2305 163.699 28.2992C163.697 28.4207 163.683 28.5416 163.657 28.6602C163.637 28.7707 163.609 28.8794 163.571 28.985C163.373 28.9198 163.17 28.8715 162.963 28.8406C162.703 28.7993 162.439 28.7792 162.175 28.7805C161.85 28.773 161.528 28.8366 161.23 28.967C160.968 29.0864 160.737 29.2656 160.556 29.4903C160.37 29.7255 160.233 29.9955 160.153 30.2844C160.062 30.6134 160.017 30.9536 160.021 31.295C159.991 31.6382 160.031 31.9838 160.137 32.3114C160.244 32.6389 160.415 32.9418 160.64 33.202C160.865 33.411 161.13 33.5728 161.418 33.6777C161.707 33.7827 162.013 33.8287 162.32 33.813C162.55 33.8135 162.78 33.7934 163.007 33.7528C163.212 33.7167 163.413 33.6632 163.609 33.593ZM165.895 28.2305C165.959 28.2225 166.021 28.2164 166.081 28.2124C166.141 28.2084 166.199 28.2064 166.253 28.2064C166.317 28.2064 166.377 28.2084 166.433 28.2124C166.49 28.2164 166.55 28.2225 166.614 28.2305C166.63 28.3749 166.642 28.5553 166.65 28.7719C166.658 28.9885 166.662 29.1769 166.662 29.3374C166.751 29.1806 166.856 29.0335 166.975 28.8982C167.108 28.7456 167.259 28.6102 167.426 28.4952C167.61 28.3693 167.81 28.2701 168.022 28.2004C168.258 28.1223 168.506 28.0837 168.755 28.0861C169.044 28.0607 169.334 28.1048 169.602 28.2147C169.87 28.3246 170.108 28.4971 170.295 28.7177C170.646 29.2406 170.815 29.8641 170.777 30.4924V34.3664C170.711 34.3761 170.645 34.3821 170.578 34.3845C170.494 34.3885 170.428 34.3905 170.38 34.3905C170.332 34.3905 170.268 34.3885 170.19 34.3845C170.121 34.3823 170.053 34.3763 169.985 34.3664V30.733C170.027 30.2229 169.916 29.7121 169.666 29.2652C169.557 29.1167 169.412 28.9981 169.245 28.9203C169.078 28.8425 168.894 28.808 168.71 28.82C168.436 28.8196 168.165 28.8782 167.916 28.9919C167.667 29.104 167.448 29.2705 167.272 29.4792C167.08 29.7118 166.934 29.9794 166.843 30.2672C166.733 30.6134 166.68 30.975 166.686 31.338V34.3664C166.62 34.3761 166.554 34.3821 166.488 34.3845C166.403 34.3885 166.337 34.3905 166.289 34.3905C166.241 34.3905 166.178 34.3885 166.101 34.3845C166.032 34.3823 165.963 34.3763 165.895 34.3664V28.2305ZM175.748 33.8164C176.026 33.8346 176.303 33.782 176.555 33.6635C176.807 33.5451 177.024 33.3647 177.187 33.1392C177.531 32.5894 177.697 31.9464 177.662 31.2985C177.697 30.6505 177.531 30.0075 177.187 29.4577C177.024 29.2322 176.807 29.0518 176.555 28.9334C176.303 28.8149 176.026 28.7623 175.748 28.7805C175.471 28.7621 175.194 28.8142 174.943 28.9321C174.691 29.0499 174.474 29.2295 174.31 29.4542C173.965 30.005 173.799 30.6494 173.835 31.2985C173.8 31.9464 173.966 32.5894 174.31 33.1392C174.474 33.3639 174.691 33.5436 174.943 33.6614C175.194 33.7792 175.471 33.8314 175.748 33.813V33.8164ZM175.748 34.5142C175.334 34.5232 174.923 34.4389 174.545 34.2676C174.21 34.1105 173.916 33.8778 173.686 33.5878C173.449 33.283 173.275 32.9342 173.174 32.5617C173.058 32.1507 173 31.7255 173.002 31.2985C173 30.8714 173.058 30.4462 173.174 30.0352C173.275 29.6639 173.449 29.3164 173.685 29.0125C173.915 28.7225 174.209 28.4898 174.544 28.3327C174.922 28.1614 175.333 28.0771 175.747 28.0861C176.16 28.0767 176.569 28.161 176.944 28.3327C177.278 28.4909 177.57 28.7235 177.799 29.0125C178.035 29.3171 178.21 29.6643 178.314 30.0352C178.432 30.4458 178.49 30.8713 178.486 31.2985C178.49 31.7256 178.432 32.1511 178.314 32.5617C178.21 32.9326 178.035 33.2798 177.799 33.5844C177.57 33.8734 177.278 34.106 176.944 34.2642C176.57 34.4358 176.16 34.5201 175.748 34.5108V34.5142ZM180.837 25.5235C180.903 25.5138 180.969 25.5077 181.036 25.5054C181.12 25.5014 181.186 25.4994 181.234 25.4994C181.283 25.4994 181.347 25.5014 181.427 25.5054C181.495 25.5076 181.564 25.5136 181.631 25.5235V32.9467C181.625 33.1123 181.649 33.2776 181.704 33.434C181.739 33.5333 181.802 33.6207 181.884 33.6867C181.955 33.7383 182.038 33.7714 182.125 33.7829C182.204 33.7943 182.285 33.8003 182.365 33.801C182.458 33.8007 182.55 33.7946 182.642 33.7829C182.723 33.7736 182.803 33.7595 182.883 33.7408C182.925 33.841 182.953 33.9461 182.969 34.0536C182.985 34.1682 182.997 34.2725 183.005 34.3664C182.882 34.4095 182.755 34.4383 182.626 34.4524C182.496 34.4678 182.365 34.4758 182.235 34.4764C182.065 34.4763 181.896 34.4581 181.729 34.4223C181.566 34.3883 181.412 34.3185 181.278 34.2177C181.14 34.1098 181.03 33.9693 180.959 33.8087C180.871 33.5933 180.83 33.3615 180.839 33.1289L180.837 25.5235ZM187.166 33.813C187.443 33.8314 187.72 33.7792 187.972 33.6614C188.223 33.5436 188.44 33.3639 188.604 33.1392C188.948 32.5894 189.114 31.9464 189.079 31.2985C189.114 30.6505 188.948 30.0075 188.604 29.4577C188.441 29.2323 188.224 29.052 187.972 28.9336C187.721 28.8151 187.443 28.7625 187.166 28.7805C186.889 28.7621 186.612 28.8142 186.36 28.9321C186.109 29.0499 185.891 29.2295 185.728 29.4542C185.384 30.0041 185.218 30.6471 185.253 31.295C185.218 31.943 185.384 32.586 185.728 33.1358C185.891 33.3611 186.108 33.5414 186.36 33.6599C186.611 33.7783 186.889 33.831 187.166 33.813ZM187.166 34.5108C186.751 34.5198 186.34 34.4355 185.963 34.2642C185.628 34.1071 185.333 33.8744 185.103 33.5844C184.866 33.2809 184.69 32.9333 184.588 32.5617C184.472 32.1507 184.414 31.7255 184.416 31.2985C184.414 30.8714 184.472 30.4462 184.588 30.0352C184.69 29.6636 184.866 29.316 185.103 29.0125C185.333 28.7225 185.628 28.4898 185.963 28.3327C186.34 28.1614 186.751 28.0771 187.166 28.0861C187.578 28.0767 187.988 28.161 188.363 28.3327C188.696 28.4909 188.988 28.7235 189.217 29.0125C189.453 29.3171 189.628 29.6643 189.733 30.0352C189.851 30.4458 189.909 30.8713 189.905 31.2985C189.909 31.7256 189.851 32.1511 189.733 32.5617C189.628 32.9326 189.453 33.2798 189.217 33.5844C188.988 33.8734 188.696 34.106 188.363 34.2642C187.988 34.4359 187.578 34.5202 187.166 34.5108ZM195.299 33.7528C195.839 33.7169 196.374 33.8734 196.809 34.1945C196.959 34.3347 197.077 34.5056 197.155 34.6956C197.233 34.8856 197.269 35.0902 197.26 35.2954C197.264 35.5955 197.18 35.8902 197.019 36.1436C196.847 36.4082 196.616 36.6303 196.346 36.7933C196.026 36.9865 195.678 37.1286 195.314 37.2144C194.891 37.3178 194.457 37.3683 194.021 37.3648C193.688 37.3667 193.356 37.3379 193.029 37.2788C192.755 37.2322 192.491 37.1407 192.246 37.0081C192.033 36.8931 191.855 36.7227 191.731 36.5149C191.604 36.285 191.542 36.0252 191.55 35.7629C191.554 35.4492 191.648 35.1433 191.822 34.882C191.987 34.6121 192.225 34.395 192.509 34.2564C192.358 34.161 192.227 34.0362 192.124 33.8895C192.017 33.7284 191.962 33.5375 191.968 33.3438C191.958 33.0661 192.036 32.7923 192.191 32.5617C192.354 32.3391 192.555 32.1476 192.786 31.9963C192.506 31.8199 192.274 31.5758 192.112 31.2864C191.937 30.9617 191.85 30.5966 191.86 30.2277C191.858 29.942 191.909 29.6585 192.01 29.3915C192.108 29.1342 192.262 28.902 192.461 28.7117C192.675 28.5112 192.926 28.3557 193.201 28.2545C193.527 28.1354 193.871 28.0772 194.218 28.0827C194.516 28.0781 194.812 28.1207 195.096 28.209C195.336 28.2849 195.563 28.3965 195.77 28.5399C195.85 28.5078 195.95 28.4717 196.071 28.4316C196.201 28.389 196.333 28.3548 196.468 28.3293C196.612 28.3012 196.761 28.2772 196.913 28.2571C197.06 28.2374 197.209 28.2273 197.358 28.227C197.391 28.3567 197.407 28.4902 197.406 28.6241C197.408 28.7619 197.392 28.8994 197.358 29.0331H196.213C196.324 29.2071 196.411 29.3953 196.471 29.5926C196.531 29.7977 196.56 30.0106 196.557 30.2242C196.563 30.5384 196.502 30.8503 196.377 31.1386C196.262 31.3956 196.091 31.6237 195.877 31.8063C195.657 31.991 195.404 32.1318 195.131 32.2214C194.835 32.3196 194.524 32.3684 194.211 32.3658C193.905 32.3717 193.6 32.327 193.309 32.2335C193.128 32.341 192.968 32.4815 192.839 32.6477C192.747 32.78 192.698 32.9377 192.7 33.0988C192.7 33.1765 192.712 33.2537 192.736 33.3274C192.766 33.407 192.818 33.4761 192.887 33.526C192.982 33.5951 193.091 33.6442 193.206 33.6703C193.379 33.7105 193.557 33.7287 193.735 33.7245L195.299 33.7528ZM193.591 34.4747C193.425 34.4634 193.259 34.4861 193.103 34.5414C192.947 34.5967 192.804 34.6833 192.682 34.7961C192.567 34.9095 192.477 35.0456 192.418 35.1959C192.359 35.3461 192.332 35.507 192.338 35.6684C192.332 35.8386 192.378 36.0066 192.471 36.1496C192.563 36.2815 192.69 36.3856 192.838 36.4504C193.012 36.5275 193.196 36.5782 193.385 36.6008C193.605 36.6296 193.826 36.6436 194.047 36.6429C194.653 36.6736 195.256 36.5403 195.792 36.257C195.969 36.176 196.12 36.0488 196.23 35.8889C196.34 35.729 196.405 35.5424 196.418 35.3487C196.429 35.2222 196.406 35.095 196.351 34.9806C196.296 34.8662 196.211 34.7689 196.105 34.699C195.787 34.5462 195.435 34.4758 195.082 34.4945L193.591 34.4747ZM192.7 30.2277C192.689 30.6118 192.819 30.9867 193.067 31.2804C193.215 31.4325 193.395 31.5499 193.593 31.6242C193.792 31.6985 194.005 31.7278 194.216 31.7101C194.428 31.7274 194.642 31.6979 194.841 31.6237C195.041 31.5494 195.222 31.4322 195.371 31.2804C195.622 30.9882 195.755 30.6128 195.744 30.2277C195.755 29.8426 195.622 29.4672 195.371 29.1749C195.222 29.0231 195.041 28.9059 194.841 28.8317C194.642 28.7574 194.428 28.7279 194.216 28.7452C194.005 28.7275 193.792 28.7568 193.593 28.8311C193.395 28.9054 193.215 29.0229 193.067 29.1749C192.819 29.4686 192.689 29.8435 192.7 30.2277ZM199.531 28.9042H198.757C198.748 28.8565 198.742 28.8083 198.739 28.7599C198.735 28.7026 198.733 28.6424 198.733 28.5794C198.733 28.5164 198.735 28.4522 198.739 28.3869C198.742 28.3344 198.748 28.2822 198.757 28.2305H200.321V34.3664C200.259 34.3758 200.195 34.3818 200.132 34.3845C200.048 34.3885 199.982 34.3905 199.934 34.3905C199.885 34.3905 199.82 34.3885 199.739 34.3845C199.669 34.3824 199.599 34.3764 199.531 34.3664V28.9042ZM199.137 26.7266C199.129 26.6544 199.123 26.5662 199.119 26.4619C199.115 26.3576 199.113 26.2694 199.113 26.1972C199.113 26.133 199.115 26.0528 199.119 25.9566C199.123 25.8603 199.129 25.7801 199.137 25.716C199.209 25.7079 199.297 25.7019 199.402 25.6979C199.506 25.6939 199.594 25.6919 199.666 25.6919C199.731 25.6919 199.811 25.6939 199.907 25.6979C200.003 25.7019 200.083 25.7079 200.148 25.716C200.156 25.7801 200.162 25.8603 200.166 25.9566C200.17 26.0528 200.172 26.133 200.172 26.1972C200.172 26.2694 200.17 26.3576 200.166 26.4619C200.162 26.5662 200.156 26.6544 200.148 26.7266C200.083 26.7346 200.003 26.7406 199.907 26.7446C199.811 26.7486 199.731 26.7506 199.666 26.7506C199.594 26.7506 199.506 26.7486 199.402 26.7446C199.297 26.7406 199.209 26.7346 199.137 26.7266ZM206.406 31.3827C206.269 31.3666 206.097 31.3486 205.89 31.3285C205.683 31.3085 205.488 31.2985 205.306 31.2985C204.818 31.2693 204.332 31.3866 203.911 31.6353C203.752 31.7394 203.624 31.8828 203.537 32.0515C203.451 32.2202 203.409 32.4084 203.418 32.5978C203.407 32.8203 203.459 33.0412 203.568 33.2355C203.663 33.3908 203.798 33.5176 203.959 33.6024C204.124 33.6895 204.303 33.7476 204.488 33.7743C204.68 33.8023 204.873 33.8164 205.066 33.8164C205.299 33.8172 205.532 33.8052 205.764 33.7803C205.98 33.7563 206.193 33.7242 206.401 33.6841L206.406 31.3827ZM206.406 30.3119C206.424 30.1033 206.4 29.8931 206.336 29.6937C206.272 29.4943 206.169 29.3098 206.033 29.1509C205.881 29.0189 205.706 28.9182 205.515 28.8546C205.325 28.791 205.124 28.7658 204.924 28.7805C204.63 28.7784 204.336 28.8006 204.046 28.8467C203.806 28.8851 203.569 28.9393 203.336 29.0091C203.287 28.9103 203.252 28.8049 203.234 28.6963C203.207 28.5697 203.192 28.4407 203.191 28.3113C203.445 28.2376 203.703 28.1833 203.965 28.1488C204.276 28.1043 204.589 28.0822 204.903 28.0827C205.525 28.0343 206.142 28.218 206.636 28.5983C206.839 28.8103 206.995 29.0633 207.092 29.3403C207.19 29.6173 207.227 29.9119 207.201 30.2045V34.2581C206.921 34.3154 206.58 34.3727 206.179 34.43C205.8 34.4851 205.418 34.5138 205.036 34.516C204.415 34.5489 203.799 34.3918 203.27 34.0656C203.049 33.8994 202.873 33.6796 202.761 33.4271C202.648 33.1746 202.601 32.8975 202.624 32.6219C202.619 32.3249 202.683 32.0307 202.811 31.7625C202.932 31.5135 203.108 31.2954 203.326 31.1249C203.563 30.9443 203.833 30.8115 204.12 30.7338C204.452 30.6427 204.794 30.5982 205.137 30.6015C205.424 30.6015 205.672 30.6115 205.883 30.6316C206.094 30.6516 206.266 30.6697 206.399 30.6857L206.406 30.3119Z" fill="white"/>
<path d="M11.7468 53.1988C11.7468 39.6372 11.7468 26.076 11.7468 12.5151C11.7468 12.2323 11.7331 11.9496 11.7193 11.6669C10.1136 13.9298 8.70237 16.3245 7.50066 18.8255C5.81144 22.2555 4.48233 25.8515 3.53464 29.5557C2.79921 32.4786 2.27394 35.4505 1.96285 38.4484C1.81163 40.0675 1.7445 41.6934 1.76175 43.3194C1.76175 44.0292 1.7523 44.7399 1.73425 45.4506C1.73845 47.8635 1.94137 50.2719 2.34097 52.6514L2.35988 52.7863C2.45365 53.428 2.51275 54.0743 2.53691 54.7224V54.7319C5.34707 54.7465 8.15722 54.7508 10.9665 54.7903C11.599 54.7989 11.8096 54.554 11.7511 53.9636C11.7254 53.7127 11.7468 53.4557 11.7468 53.1988Z" fill="white"/>
<path d="M41.2311 0.822458C41.2311 0.186521 40.9776 0.0215419 40.3717 0.0920106C38.6736 0.257844 36.9921 0.563697 35.3444 1.00641C32.3878 1.78475 29.5987 3.09774 27.115 4.88047C26.5702 5.62554 25.789 6.75215 25.3353 7.41731C23.5635 9.95363 22.3348 12.8287 21.7264 15.8621C21.1179 18.8956 21.1428 22.0221 21.7994 25.0455C22.456 28.0689 23.7302 30.9241 25.5422 33.4319C27.3541 35.9397 29.6646 38.0461 32.3288 39.619L32.5643 39.7642C33.574 40.4756 34.7034 40.9996 35.8987 41.3111C35.7311 41.2329 35.5549 41.1667 35.3951 41.0791C32.5392 39.5655 30.2332 37.1899 28.8053 34.2902C27.3775 31.3905 26.9003 28.1143 27.4419 24.9278C27.9834 21.7413 29.516 18.8067 31.8216 16.5415C34.1272 14.2762 37.0885 12.7957 40.2841 12.3106C40.8298 12.2247 41.2432 12.1886 41.2371 11.4512C41.2079 7.90288 41.2165 4.36222 41.2311 0.822458Z" fill="white"/>
<path d="M47.0551 12.0381C48.0433 10.1745 49.3122 8.47399 50.8174 6.99616C53.5583 4.12167 56.83 1.80537 60.4519 0.17529C59.9686 0.0687544 59.4755 0.0128532 58.9806 0.00854492C54.5485 0.00854492 50.1167 0.00854492 45.6852 0.00854492C44.5878 0.00854492 44.5749 0.0283017 44.568 1.17041C44.5594 4.02611 44.568 6.88013 44.568 9.73584C44.568 12.2607 44.5749 12.3629 46.9743 12.1842L47.0551 12.0381Z" fill="white"/>
<path d="M2.00237 54.7327C1.97815 54.1068 1.92077 53.4826 1.83048 52.8627L1.81159 52.7278C1.40745 50.319 1.2028 47.881 1.19971 45.4386C1.21775 44.7313 1.22291 44.0241 1.22721 43.3168C1.20977 41.6718 1.27805 40.027 1.43174 38.3891C1.74559 35.3662 2.27546 32.3696 3.01729 29.4224C3.97388 25.6823 5.31566 22.0516 7.02112 18.5883C8.28016 15.9562 9.77377 13.443 11.4838 11.0791L11.6987 10.7576C11.7142 7.46365 11.7202 4.1688 11.758 0.87482C11.7657 0.20107 11.5139 -0.00518446 10.8617 -2.82101e-05C7.78939 0.0231749 4.71799 0.00600798 1.64572 0.0103049C-0.151232 0.0103049 0.00345943 -0.149541 0.00345943 1.67319C0.00345943 18.655 0.00345943 35.6366 0.00345943 52.6178C0.00345943 54.7826 0.00947739 54.8719 2.00409 54.7499L2.00237 54.7327Z" fill="white"/>
<path d="M39.9154 42.6112C39.2476 42.4814 38.5842 42.3345 37.9182 42.1953C37.7445 42.1949 37.572 42.1659 37.4077 42.1093C36.8061 42.0079 36.3765 41.9212 36.3266 41.9117C34.8662 41.6733 33.4825 41.0942 32.2876 40.2213L32.0529 40.0769C29.3272 38.4661 26.9634 36.3097 25.1098 33.7429C23.2562 31.176 21.9527 28.254 21.281 25.1599C20.6093 22.0658 20.5838 18.8663 21.2062 15.7619C21.8285 12.6575 23.0853 9.71509 24.8978 7.11903C24.9708 7.01247 25.2562 6.59566 25.6085 6.08777C25.2774 6.22213 24.9761 6.42043 24.7216 6.6713C17.875 12.8064 14.6197 20.4359 15.2565 29.6493C15.5801 34.7475 17.397 39.6377 20.4806 43.7104C22.7512 46.8475 25.6698 49.4596 29.0387 51.3696C32.4075 53.2795 36.1477 54.4426 40.0056 54.78C41.1761 54.9046 41.1872 54.8659 41.1907 53.6628C41.1993 50.5089 41.2038 47.3547 41.2044 44.2002C41.2018 42.8561 41.1984 42.8621 39.9154 42.6112Z" fill="white"/>
<path d="M49.4356 12.2015L50.05 11.9239C55.018 9.75352 60.5119 9.08174 65.8565 9.99113C71.6181 10.833 76.9596 13.4949 81.101 17.588C81.9363 18.4105 82.7484 19.2801 83.533 20.1215C83.8154 20.4251 84.099 20.7276 84.3838 21.0289C84.3726 20.9266 84.3551 20.825 84.3314 20.7247C82.8518 14.7899 79.4036 9.5322 74.5499 5.81028C70.7633 2.80418 66.2166 0.90821 61.4161 0.333496L60.9735 0.516501C57.2957 2.12744 53.9751 4.45399 51.205 7.36061C49.7645 8.77909 48.5428 10.4039 47.5802 12.1817C48.1977 12.2246 48.8172 12.2312 49.4356 12.2015Z" fill="white"/>
<path d="M84.6166 22.0636L84.2428 21.6562C83.8759 21.2704 83.5098 20.8776 83.1437 20.4849C82.3625 19.647 81.5547 18.7808 80.728 17.9678C76.6657 13.9534 71.4262 11.3429 65.7749 10.5179C60.7367 9.6634 55.56 10.2371 50.8312 12.1739C53.2503 12.1988 55.6695 12.2487 58.0886 12.2143C60.8806 12.1566 63.6229 12.9575 65.945 14.5088C70.8555 17.7495 73.1371 22.3429 73.0701 28.2459C72.9738 36.7314 73.0383 45.2194 73.0452 53.7066C73.0452 54.6614 73.0838 54.6872 74.0824 54.6906C77.367 54.7015 80.6509 54.7015 83.9343 54.6906C85.1469 54.6906 85.1632 54.6786 85.1632 53.5124C85.1632 44.6419 85.183 35.7715 85.1477 26.9001C85.1866 25.2715 85.008 23.645 84.6166 22.0636V22.0636Z" fill="white"/>
</g>
<defs>
<clipPath id="clip0_3:18">
<rect width="210.547" height="55" fill="white"/>
</clipPath>
</defs>
</svg>
